<?xml version="1.0" standalone="no"?>
<!DOCTYPE svg PUBLIC "-//W3C//DTD SVG 20010904//EN"
 "http://www.w3.org/TR/2001/REC-SVG-20010904/DTD/svg10.dtd">
<svg version="1.0" xmlns="http://www.w3.org/2000/svg"
 width="512.000000pt" height="512.000000pt" viewBox="0 0 512.000000 512.000000"
 preserveAspectRatio="xMidYMid meet">
<metadata>
Created by potrace 1.11, written by Peter Selinger 2001-2013
</metadata>
<g transform="translate(0.000000,512.000000) scale(0.100000,-0.100000)"
fill="#000000" stroke="none">
<path d="M1440 4486 l-1095 -633 0 -1283 0 -1283 1105 -638 c608 -351 1110
-639 1116 -639 6 0 508 287 1115 638 l1104 637 0 1285 0 1285 -1095 632 c-798
461 -1103 633 -1125 632 -21 0 -356 -188 -1125 -633z m1484 -1218 l124 -62
-349 -698 c-192 -384 -354 -698 -359 -698 -13 0 -250 119 -250 125 0 13 696
1395 702 1395 4 0 64 -28 132 -62z m1016 -1003 l-305 -305 -102 102 -103 103
202 202 203 203 -203 203 -202 202 102 103 103 102 305 -305 305 -305 -305
-305z m-2338 808 l98 -98 -202 -202 -203 -203 203 -203 202 -202 -98 -98 c-53
-53 -102 -97 -107 -97 -6 0 -145 135 -310 300 l-300 300 300 300 c165 165 304
300 310 300 5 0 54 -44 107 -97z"/>
</g>
</svg>
